<svg width="115" height="78" viewBox="0 0 115 78" fill="none" xmlns="http://www.w3.org/2000/svg">
<rect x="0.5" y="0.5" width="114" height="77" rx="3.5" fill="#28282C" stroke="url(#paint0_linear_1731_271)"/>
<path d="M8.90577 67.28V64.112C9.20577 64.652 9.86577 65.168 10.8498 65.168C12.5058 65.168 13.4898 63.836 13.4898 62.12C13.4898 60.404 12.5658 59.084 10.8738 59.084C9.85377 59.084 9.18177 59.624 8.88177 60.212V59.252H7.94577V67.28H8.90577ZM10.7058 64.304C9.60177 64.304 8.88177 63.392 8.88177 62.12C8.88177 60.848 9.58977 59.948 10.7058 59.948C11.8218 59.948 12.5298 60.848 12.5298 62.12C12.5298 63.392 11.8098 64.304 10.7058 64.304ZM17.461 59.084C15.805 59.084 14.581 60.356 14.581 62.12C14.581 63.896 15.805 65.168 17.461 65.168C19.117 65.168 20.341 63.896 20.341 62.12C20.341 60.356 19.117 59.084 17.461 59.084ZM17.461 59.948C18.493 59.948 19.381 60.728 19.381 62.12C19.381 63.524 18.493 64.304 17.461 64.304C16.429 64.304 15.541 63.524 15.541 62.12C15.541 60.728 16.429 59.948 17.461 59.948ZM25.1119 59.252L23.5279 63.8L22.1239 59.252H21.0919L22.9999 65H24.0199L25.6039 60.416L27.2119 65H28.2199L30.0919 59.252H29.0719L27.7039 63.8L26.1079 59.252H25.1119ZM31.8546 61.568C31.9146 60.716 32.5866 59.936 33.5826 59.936C34.6746 59.936 35.2626 60.656 35.2866 61.568H31.8546ZM35.4186 63.068C35.1906 63.752 34.6626 64.304 33.6906 64.304C32.6586 64.304 31.8306 63.524 31.8306 62.432V62.384H36.2586C36.2706 62.3 36.2826 62.168 36.2826 62.048C36.2826 60.296 35.3106 59.084 33.5706 59.084C32.1186 59.084 30.8466 60.296 30.8466 62.108C30.8466 64.04 32.1546 65.168 33.6906 65.168C35.0226 65.168 35.9226 64.364 36.2466 63.368L35.4186 63.068ZM40.8188 59.216C40.7348 59.192 40.5668 59.168 40.4108 59.168C39.7748 59.168 39.0428 59.444 38.6708 60.284V59.252H37.7348V65H38.6948V62.024C38.6948 60.728 39.3548 60.176 40.3148 60.176C40.4828 60.176 40.6628 60.188 40.8188 60.236V59.216ZM42.4367 61.568C42.4967 60.716 43.1687 59.936 44.1647 59.936C45.2567 59.936 45.8447 60.656 45.8687 61.568H42.4367ZM46.0007 63.068C45.7727 63.752 45.2447 64.304 44.2727 64.304C43.2407 64.304 42.4127 63.524 42.4127 62.432V62.384H46.8407C46.8527 62.3 46.8647 62.168 46.8647 62.048C46.8647 60.296 45.8927 59.084 44.1527 59.084C42.7007 59.084 41.4287 60.296 41.4287 62.108C41.4287 64.04 42.7367 65.168 44.2727 65.168C45.6047 65.168 46.5047 64.364 46.8287 63.368L46.0007 63.068ZM52.4809 64.172C52.4809 64.544 52.5169 64.868 52.5409 65H53.4769C53.4529 64.88 53.4169 64.496 53.4169 63.92V56.324H52.4569V60.176C52.2649 59.696 51.7009 59.084 50.5969 59.084C48.9889 59.084 47.9329 60.452 47.9329 62.12C47.9329 63.824 48.9409 65.168 50.5969 65.168C51.5929 65.168 52.2169 64.58 52.4809 64.016V64.172ZM50.6809 64.304C49.6009 64.304 48.8929 63.392 48.8929 62.12C48.8929 60.848 49.5889 59.948 50.6809 59.948C51.7729 59.948 52.4809 60.848 52.4809 62.12C52.4809 63.392 51.7609 64.304 50.6809 64.304ZM59.2841 65V64.052C59.6201 64.676 60.2921 65.168 61.2521 65.168C62.9201 65.168 63.8921 63.836 63.8921 62.12C63.8921 60.44 62.9801 59.084 61.2761 59.084C60.2441 59.084 59.5721 59.648 59.3081 60.188V56.324H58.3481V65H59.2841ZM61.1081 64.304C60.0041 64.304 59.2841 63.392 59.2841 62.12C59.2841 60.848 59.9921 59.948 61.1081 59.948C62.2241 59.948 62.9321 60.848 62.9321 62.12C62.9321 63.392 62.2121 64.304 61.1081 64.304ZM66.6207 67.28L70.3047 59.252H69.2607L67.4727 63.32L65.5767 59.252H64.4727L66.9447 64.316L65.5527 67.28H66.6207ZM76.6399 59.948C77.6719 59.948 78.1399 60.656 78.2959 61.268L79.1599 60.896C78.9199 59.984 78.1159 59.084 76.6399 59.084C75.0199 59.084 73.7959 60.332 73.7959 62.12C73.7959 63.872 74.9959 65.168 76.6519 65.168C78.1279 65.168 78.9319 64.232 79.2079 63.38L78.3679 63.008C78.1999 63.536 77.7439 64.304 76.6519 64.304C75.6319 64.304 74.7559 63.5 74.7559 62.12C74.7559 60.728 75.6319 59.948 76.6399 59.948ZM83.6626 59.216C83.5786 59.192 83.4106 59.168 83.2546 59.168C82.6186 59.168 81.8866 59.444 81.5146 60.284V59.252H80.5786V65H81.5386V62.024C81.5386 60.728 82.1986 60.176 83.1586 60.176C83.3266 60.176 83.5066 60.188 83.6626 60.236V59.216ZM86.2613 67.28L89.9453 59.252H88.9013L87.1133 63.32L85.2173 59.252H84.1133L86.5853 64.316L85.1933 67.28H86.2613ZM92.0386 67.28V64.112C92.3386 64.652 92.9986 65.168 93.9826 65.168C95.6386 65.168 96.6226 63.836 96.6226 62.12C96.6226 60.404 95.6986 59.084 94.0066 59.084C92.9866 59.084 92.3146 59.624 92.0146 60.212V59.252H91.0786V67.28H92.0386ZM93.8386 64.304C92.7346 64.304 92.0146 63.392 92.0146 62.12C92.0146 60.848 92.7226 59.948 93.8386 59.948C94.9546 59.948 95.6626 60.848 95.6626 62.12C95.6626 63.392 94.9426 64.304 93.8386 64.304ZM99.4081 57.428H98.5081V58.376C98.5081 58.916 98.2561 59.252 97.6681 59.252H97.2961V60.116H98.4481V63.428C98.4481 64.472 99.0601 65.06 100.008 65.06C100.38 65.06 100.656 64.988 100.764 64.952V64.136C100.668 64.16 100.452 64.196 100.284 64.196C99.6721 64.196 99.4081 63.896 99.4081 63.296V60.116H100.764V59.252H99.4081V57.428ZM104.566 59.084C102.91 59.084 101.686 60.356 101.686 62.12C101.686 63.896 102.91 65.168 104.566 65.168C106.222 65.168 107.446 63.896 107.446 62.12C107.446 60.356 106.222 59.084 104.566 59.084ZM104.566 59.948C105.598 59.948 106.486 60.728 106.486 62.12C106.486 63.524 105.598 64.304 104.566 64.304C103.534 64.304 102.646 63.524 102.646 62.12C102.646 60.728 103.534 59.948 104.566 59.948Z" fill="white"/>
<path d="M77.2982 10C72.9937 10 68.3016 12.2457 63.342 16.6689C60.9892 18.7649 58.9573 21.0105 57.4333 22.807C57.4333 22.807 57.4334 22.807 57.4467 22.8206V22.807C57.4467 22.807 59.853 25.4746 62.5132 28.3327C63.9436 26.6042 66.0023 24.2497 68.3684 22.1265C72.7798 18.1932 75.654 17.363 77.2982 17.363C83.4876 17.363 88.514 22.3579 88.514 28.496C88.514 34.5933 83.4743 39.5882 77.2982 39.629C77.0175 39.629 76.6566 39.5882 76.2021 39.4929C78.0067 40.2823 79.9451 40.8539 81.7899 40.8539C93.126 40.8539 95.3451 33.3276 95.4921 32.7832C95.8263 31.4086 96.0001 29.9659 96.0001 28.4824C96.0001 18.3021 87.605 10 77.2982 10Z" fill="url(#paint1_linear_1731_271)"/>
<path d="M37.7019 47.0194C42.0064 47.0194 46.6985 44.7737 51.6581 40.3505C54.0108 38.2545 56.0428 36.0089 57.5667 34.2123C57.5667 34.2123 57.5667 34.2123 57.5534 34.1987V34.2123C57.5534 34.2123 55.1471 31.5448 52.4869 28.6867C51.0565 30.4152 48.9978 32.7697 46.6317 34.8928C42.2202 38.8261 39.3461 39.6563 37.7019 39.6563C31.5125 39.6427 26.4861 34.6479 26.4861 28.5097C26.4861 22.4125 31.5258 17.4176 37.7019 17.3768C37.9826 17.3768 38.3435 17.4176 38.798 17.5129C36.9934 16.7235 35.055 16.1519 33.2102 16.1519C21.8741 16.1519 19.6684 23.6782 19.508 24.209C19.1738 25.5972 19 27.0263 19 28.5097C19 38.7173 27.3951 47.0194 37.7019 47.0194Z" fill="url(#paint2_linear_1731_271)"/>
<path d="M81.7632 40.6906C75.9615 40.5409 69.9325 35.8863 68.7026 34.7294C65.521 31.7352 58.182 23.6372 57.6072 22.9976C52.2332 16.8594 44.9476 10 37.7022 10H37.6888H37.6754C28.8793 10.0408 21.4868 16.1109 19.5083 24.2089C19.6553 23.6781 22.5562 16.002 33.1972 16.2742C38.9989 16.4239 45.0546 21.1466 46.2978 22.3035C49.4794 25.2977 56.8185 33.3956 57.3933 34.0353C62.7672 40.1598 70.0528 47.0192 77.2983 47.0192H77.3116H77.325C86.1211 46.9784 93.527 40.9084 95.4921 32.8104C95.3317 33.3412 92.4175 40.9492 81.7632 40.6906Z" fill="#29ABE2"/>
<defs>
<linearGradient id="paint0_linear_1731_271" x1="16.489" y1="11.1838" x2="67.9106" y2="86.9977" gradientUnits="userSpaceOnUse">
<stop stop-color="#A1A2A7"/>
<stop offset="1" stop-color="#565861"/>
</linearGradient>
<linearGradient id="paint1_linear_1731_271" x1="67.5629" y1="12.4409" x2="93.4626" y2="38.784" gradientUnits="userSpaceOnUse">
<stop offset="0.21" stop-color="#F15A24"/>
<stop offset="0.6841" stop-color="#FBB03B"/>
</linearGradient>
<linearGradient id="paint2_linear_1731_271" x1="47.4372" y1="44.5785" x2="21.5375" y2="18.2354" gradientUnits="userSpaceOnUse">
<stop offset="0.21" stop-color="#ED1E79"/>
<stop offset="0.8929" stop-color="#522785"/>
</linearGradient>
</defs>
</svg>